<?xml version="1.0" encoding="UTF-8"?>
<svg t="1709284030739" class="icon" viewBox="0 0 1152 1024" version="1.1" xmlns="http://www.w3.org/2000/svg"
    p-id="13675" width="24" height="24">
    <path
        d="M1128.64 806.272L676.16 72.32c-55.168-96.32-145.152-96.32-200.256 0L23.232 806.4C-31.808 902.592 14.592 979.2 124.8 979.2h905.216c107.392 0 153.792-79.36 98.624-172.928z"
        fill="#eab308" p-id="13676"></path>
    <path
        d="M574.464 695.808c32 0 60.992 28.352 60.992 59.52 0 31.168-26.112 59.52-60.992 59.52a60.544 60.544 0 0 1-60.8-59.52c0-31.232 28.928-59.52 60.8-59.52z m2.88-444.992c23.296 0 43.584 19.84 43.584 42.496v297.6c0 22.656-20.288 42.496-43.52 42.496a44.16 44.16 0 0 1-43.52-42.496v-297.6c0-22.656 20.288-42.496 43.52-42.496z"
        fill="#FFFFFF" p-id="13677"></path>
</svg>