<svg xmlns="http://www.w3.org/2000/svg" viewBox="0 0 40 40"><g fill="none" fill-rule="evenodd"><path fill="#FFD815" d="m29.611 15.584-2.597-2.598-2.598 2.598 2.598 2.597 2.597 2.597 2.597-2.597z"/><path fill="#FF9813" d="m29.611 0-2.598 2.597 2.598 2.598 2.597-2.598zM40 10.389l-2.597-2.597-2.598 2.597 2.598 2.598zM24.416 31.168l2.598 2.597 2.597-2.597-2.597-2.598zM6.235 12.986l2.598 2.598 2.597-2.598-2.597-2.597zM19.222 0l-2.598 2.597 2.598 2.598 2.597-2.598zM8.833 5.195l2.597 2.597 2.597-2.597-2.597-2.598zM37.403 18.181l-2.598 2.597 2.598 2.598L40 20.778zM32.208 28.57l2.597 2.598 2.598-2.598-2.598-2.597z"/><path fill="#5B5B72" d="m29.611 20.778-2.597-2.597-2.598 2.597-2.597-2.597-2.597-2.597 2.597-2.598-2.597-2.597-2.598-2.597-2.597 2.597 2.597 2.597-2.597 2.598 2.597 2.597-2.597 2.597-1.299-1.298-2.597 2.597 2.597 2.597-2.597 2.598-2.468 2.468-2.468 2.468-2.598 2.598L0 37.403 2.597 40l2.598-2.597 2.597-2.597 2.468-2.469.129-.129 2.339-2.339.129-.129 2.469-2.468 2.597 2.597 2.597-2.597-1.298-1.299 2.597-2.597 2.597 2.597 2.598-2.597 2.597 2.597 2.597-2.597z"/><path fill="#FF9813" d="m29.611 10.389-2.597-2.597-2.598 2.597-2.597-2.597-2.597 2.597 2.597 2.598-2.597 2.597 2.597 2.597 2.597 2.597 2.598-2.597-2.598-2.597 2.598-2.597 2.597 2.597 2.597-2.597z"/></g></svg>
