<svg xmlns="http://www.w3.org/2000/svg" xmlns:xlink="http://www.w3.org/1999/xlink" width="326.477" height="64.359" viewBox="0 0 326.477 64.359">
  <defs>
    <linearGradient id="linear-gradient" y1="0.5" x2="1" y2="0.5" gradientUnits="objectBoundingBox">
      <stop offset="0" stop-color="#ff43f4"/>
      <stop offset="1" stop-color="#8127e6"/>
    </linearGradient>
  </defs>
  <g id="logo彩色" transform="translate(-136.124 39.151)">
    <path id="Gradient_Overlay" data-name="Gradient Overlay" d="M3.962,7.765H7.614a5.6,5.6,0,0,0,2.814-.51,1.87,1.87,0,0,0,.806-1.713,1.974,1.974,0,0,0-.7-1.729,4.984,4.984,0,0,0-2.664-.494H3.962ZM-.023,15.951V.063h9.41A6.131,6.131,0,0,1,13.71,1.5a5.15,5.15,0,0,1,1.552,3.98A5.115,5.115,0,0,1,13.71,9.446,6.16,6.16,0,0,1,9.387,10.87H3.962v5.081Zm22.2-6.574h4.2L24.243,4.467Zm-7.09,6.574L22.621.063h3.824l7.24,15.888H29.26l-1.45-3.362H20.816l-1.429,3.362Zm23.59-9.109h4.5a5.206,5.206,0,0,0,2.508-.435,1.541,1.541,0,0,0,.725-1.434,1.426,1.426,0,0,0-.677-1.354,6.3,6.3,0,0,0-2.729-.387H38.681ZM34.7,15.951V.063H44.46a8.335,8.335,0,0,1,4.684,1.042,3.661,3.661,0,0,1,1.5,3.233,4.407,4.407,0,0,1-.7,2.471A3.936,3.936,0,0,1,48,8.356a3.146,3.146,0,0,1,1.477,1.09,4.878,4.878,0,0,1,.5,2.293q.011.161.021.44.129,2.954.838,3.771H46.372a2.022,2.022,0,0,1-.242-.569,2.652,2.652,0,0,1-.081-.666V13.641a4.89,4.89,0,0,0-.564-2.868,2.8,2.8,0,0,0-2.208-.677h-4.6v5.854ZM61.024,3.275V15.951H57.071V3.275H51.636V.063H66.46V3.275Zm7.154,12.676V.063h3.985V15.951ZM93.595,9.8a6.531,6.531,0,0,1-2.809,4.78,10.575,10.575,0,0,1-6.343,1.794A10.145,10.145,0,0,1,77.5,14.1a7.691,7.691,0,0,1-2.589-6.085A7.707,7.707,0,0,1,77.5,1.921,10.13,10.13,0,0,1,84.442-.356a10.839,10.839,0,0,1,6.29,1.713,6.113,6.113,0,0,1,2.8,4.5H89.19a3.587,3.587,0,0,0-1.6-2.2,5.93,5.93,0,0,0-3.153-.741,5.122,5.122,0,0,0-3.765,1.364A5.018,5.018,0,0,0,79.3,8.012a5,5,0,0,0,1.375,3.722,5.13,5.13,0,0,0,3.771,1.359,5.771,5.771,0,0,0,3.335-.87A3.313,3.313,0,0,0,89.233,9.8Zm2.664,6.155V.063h3.985V12.61h8.175v3.341Zm14.588,0V.063h14.1V3.275H114.832V5.961h9.013V9.194h-9.013V12.61h10.119v3.341Zm24.729,0V.063h4.888l7.938,11.2V.063h3.824V15.951h-4.834L139.378,4.639V15.951Zm20.217,0V.063h14.1V3.275H159.777V5.961h9.013V9.194h-9.013V12.61H169.9v3.341ZM179.983,3.275V15.951H176.03V3.275h-5.436V.063h14.824V3.275Zm10.033,12.676L184.957.063h4.136l3.169,10.7L196,.063h3.921l3.609,10.7,3.255-10.7h4.136l-5.146,15.888h-4.05l-3.8-11.569-3.985,11.569Zm31-2.857a5.1,5.1,0,0,0,3.754-1.359,5.007,5.007,0,0,0,1.37-3.722,5.036,5.036,0,0,0-1.37-3.744,5.872,5.872,0,0,0-7.52.005,5.018,5.018,0,0,0-1.38,3.738,5,5,0,0,0,1.375,3.722A5.13,5.13,0,0,0,221.019,13.093ZM211.49,8.012a7.707,7.707,0,0,1,2.589-6.091,11.7,11.7,0,0,1,13.868,0,7.722,7.722,0,0,1,2.578,6.091,7.706,7.706,0,0,1-2.578,6.085,11.717,11.717,0,0,1-13.868,0A7.691,7.691,0,0,1,211.49,8.012Zm25.749-1.171h4.5a5.206,5.206,0,0,0,2.508-.435,1.541,1.541,0,0,0,.725-1.434,1.426,1.426,0,0,0-.677-1.354,6.3,6.3,0,0,0-2.729-.387h-4.329Zm-3.985,9.109V.063h9.765A8.335,8.335,0,0,1,247.7,1.105a3.661,3.661,0,0,1,1.5,3.233,4.407,4.407,0,0,1-.7,2.471,3.936,3.936,0,0,1-1.939,1.547,3.146,3.146,0,0,1,1.477,1.09,4.877,4.877,0,0,1,.5,2.293q.011.161.021.44.129,2.954.838,3.771h-4.469a2.022,2.022,0,0,1-.242-.569,2.652,2.652,0,0,1-.081-.666V13.641a4.89,4.89,0,0,0-.564-2.868,2.8,2.8,0,0,0-2.208-.677h-4.6v5.854Zm18.831,0V.063h3.985v6.1l6.682-6.1h5.124l-6.993,6.166,7.853,9.722h-4.877L258.09,8.668l-2.02,1.783v5.5Z" transform="translate(136.147 -15.064)" fill="url(#linear-gradient)"/>
    <path id="椭圆_3_拷贝" data-name="椭圆 3 拷贝" d="M25.787,63.57a4.158,4.158,0,0,1-.9-5.763,4.046,4.046,0,0,1,5.695-.913,4.158,4.158,0,0,1,.9,5.763,4.044,4.044,0,0,1-5.695.913Zm-9.662-1.05a4.158,4.158,0,0,1,.9-5.763,4.046,4.046,0,0,1,5.695.913,4.158,4.158,0,0,1-.9,5.763,4.044,4.044,0,0,1-5.7-.913ZM35.3,61.548a4.137,4.137,0,0,1-2.618-5.2A4.067,4.067,0,0,1,37.816,53.7a4.136,4.136,0,0,1,2.617,5.2,4.083,4.083,0,0,1-3.877,2.852A4.03,4.03,0,0,1,35.3,61.548ZM7.257,58.5a4.136,4.136,0,0,1,2.617-5.2,4.068,4.068,0,0,1,5.138,2.649,4.137,4.137,0,0,1-2.618,5.2,4.029,4.029,0,0,1-1.261.2A4.083,4.083,0,0,1,7.257,58.5Zm32.39-5.974a4.076,4.076,0,1,1,4.076,4.126A4.1,4.1,0,0,1,39.647,52.526ZM0,51.9a4.1,4.1,0,0,1,4.126-4.076,4.076,4.076,0,1,1,0,8.152A4.1,4.1,0,0,1,0,51.9Zm19.577-.976a2.5,2.5,0,0,1,.541-3.458,2.427,2.427,0,0,1,3.417.548,2.494,2.494,0,0,1-.541,3.458,2.426,2.426,0,0,1-3.417-.548Zm6.058.53A2.5,2.5,0,0,1,25.094,48a2.427,2.427,0,0,1,3.417-.548,2.5,2.5,0,0,1,.541,3.458,2.426,2.426,0,0,1-3.417.548ZM13.978,48.528a2.482,2.482,0,0,1,1.571-3.119A2.441,2.441,0,0,1,18.631,47a2.482,2.482,0,0,1-1.571,3.119,2.418,2.418,0,0,1-.757.122A2.45,2.45,0,0,1,13.978,48.528Zm17.58,1.539a2.482,2.482,0,0,1-1.571-3.119,2.44,2.44,0,0,1,3.082-1.589,2.482,2.482,0,0,1,1.571,3.119,2.449,2.449,0,0,1-2.326,1.711A2.419,2.419,0,0,1,31.558,50.067ZM45.1,46.709a4.136,4.136,0,0,1,2.617-5.2,4.067,4.067,0,0,1,5.138,2.649,4.137,4.137,0,0,1-2.618,5.2,4.027,4.027,0,0,1-1.261.2A4.084,4.084,0,0,1,45.1,46.709ZM9.354,44.493a2.478,2.478,0,1,1,2.478,2.446A2.462,2.462,0,0,1,9.354,44.493Zm24.965-.077a2.446,2.446,0,1,1,2.446,2.478A2.462,2.462,0,0,1,34.319,44.416ZM20.707,42.15A1.331,1.331,0,0,1,21,40.306a1.294,1.294,0,0,1,1.822.292,1.331,1.331,0,0,1-.289,1.844,1.294,1.294,0,0,1-1.823-.292Zm3.307.268a1.331,1.331,0,0,1-.289-1.844,1.294,1.294,0,0,1,1.822-.292,1.331,1.331,0,0,1,.289,1.844,1.294,1.294,0,0,1-1.822.292Zm13.655-1.762a2.482,2.482,0,0,1,1.571-3.119,2.44,2.44,0,0,1,3.082,1.589,2.482,2.482,0,0,1-1.57,3.119,2.417,2.417,0,0,1-.756.122A2.45,2.45,0,0,1,37.669,40.656Zm-20.025.205a1.324,1.324,0,0,1,.838-1.664,1.3,1.3,0,0,1,1.644.848,1.324,1.324,0,0,1-.838,1.664,1.289,1.289,0,0,1-.4.065A1.307,1.307,0,0,1,17.644,40.861Zm9.6.778a1.324,1.324,0,0,1-.838-1.664,1.3,1.3,0,0,1,1.644-.848,1.324,1.324,0,0,1,.838,1.664,1.307,1.307,0,0,1-1.241.913A1.29,1.29,0,0,1,27.241,41.639Zm21.278-2.168a4.158,4.158,0,0,1,.9-5.763,4.046,4.046,0,0,1,5.695.913,4.159,4.159,0,0,1-.9,5.763,4.044,4.044,0,0,1-5.7-.913ZM15.11,38.678a1.321,1.321,0,1,1,1.321,1.3A1.312,1.312,0,0,1,15.11,38.678Zm13.657-.109a1.3,1.3,0,1,1,1.3,1.321A1.312,1.312,0,0,1,28.768,38.568Zm1.817-2.077a1.323,1.323,0,0,1,.837-1.664,1.3,1.3,0,0,1,1.644.848,1.323,1.323,0,0,1-.837,1.664,1.289,1.289,0,0,1-.4.065A1.307,1.307,0,0,1,30.585,36.491Zm9.12-.46a2.5,2.5,0,0,1,.541-3.458,2.427,2.427,0,0,1,3.417.548,2.5,2.5,0,0,1-.541,3.458,2.427,2.427,0,0,1-3.417-.548ZM31.68,33.947a1.33,1.33,0,0,1,.289-1.844,1.294,1.294,0,0,1,1.822.292,1.331,1.331,0,0,1-.289,1.844,1.294,1.294,0,0,1-1.822-.292Zm17.876-2.428a4.158,4.158,0,0,1-.9-5.763,4.046,4.046,0,0,1,5.7-.913,4.158,4.158,0,0,1,.9,5.763,4.044,4.044,0,0,1-5.7.913ZM40.229,31a2.5,2.5,0,0,1-.541-3.458,2.427,2.427,0,0,1,3.417-.548,2.5,2.5,0,0,1,.541,3.458A2.427,2.427,0,0,1,40.229,31Zm-8.285.188a1.331,1.331,0,0,1-.289-1.844,1.294,1.294,0,0,1,1.822-.292,1.33,1.33,0,0,1,.289,1.844,1.294,1.294,0,0,1-1.823.292Zm-.591-2.71a1.324,1.324,0,0,1-.838-1.664,1.3,1.3,0,0,1,1.644-.848A1.324,1.324,0,0,1,33,27.627a1.307,1.307,0,0,1-1.24.913A1.289,1.289,0,0,1,31.353,28.475Zm-16.334-3.6a1.3,1.3,0,1,1,1.3,1.321A1.311,1.311,0,0,1,15.019,24.874ZM39.19,26.044a2.482,2.482,0,0,1-1.571-3.119A2.44,2.44,0,0,1,40.7,21.335a2.481,2.481,0,0,1,1.571,3.119,2.45,2.45,0,0,1-2.326,1.711A2.419,2.419,0,0,1,39.19,26.044ZM28.64,24.761a1.321,1.321,0,1,1,1.321,1.3A1.312,1.312,0,0,1,28.64,24.761Zm-10.3-.448a1.324,1.324,0,0,1-.837-1.664,1.3,1.3,0,0,1,1.644-.848,1.323,1.323,0,0,1,.837,1.664,1.307,1.307,0,0,1-1.241.913A1.29,1.29,0,0,1,18.345,24.313Zm7.921-.918a1.323,1.323,0,0,1,.837-1.664,1.3,1.3,0,0,1,1.644.848,1.323,1.323,0,0,1-.837,1.664,1.289,1.289,0,0,1-.4.065A1.307,1.307,0,0,1,26.266,23.395Zm21.849.237a4.137,4.137,0,0,1-2.618-5.2,4.068,4.068,0,0,1,5.138-2.649,4.136,4.136,0,0,1,2.617,5.2,4.083,4.083,0,0,1-3.877,2.852A4.03,4.03,0,0,1,48.115,23.632Zm-27.271-.473a1.331,1.331,0,0,1-.289-1.844,1.3,1.3,0,0,1,1.822-.292,1.33,1.33,0,0,1,.289,1.844,1.294,1.294,0,0,1-1.822.292Zm2.73-.316A1.33,1.33,0,0,1,23.863,21a1.3,1.3,0,0,1,1.822.292,1.331,1.331,0,0,1-.289,1.844,1.294,1.294,0,0,1-1.822-.292ZM9.308,19.259a2.446,2.446,0,1,1,2.446,2.478A2.462,2.462,0,0,1,9.308,19.259Zm24.906-.077a2.478,2.478,0,1,1,2.477,2.446A2.461,2.461,0,0,1,34.214,19.182ZM15.451,18.32A2.482,2.482,0,0,1,13.881,15.2a2.44,2.44,0,0,1,3.083-1.589,2.481,2.481,0,0,1,1.571,3.119,2.45,2.45,0,0,1-2.326,1.711A2.419,2.419,0,0,1,15.451,18.32ZM29.89,16.68a2.482,2.482,0,0,1,1.571-3.119,2.44,2.44,0,0,1,3.083,1.589,2.482,2.482,0,0,1-1.571,3.119,2.418,2.418,0,0,1-.757.122A2.45,2.45,0,0,1,29.89,16.68Zm-9.88-.454a2.5,2.5,0,0,1-.541-3.458,2.428,2.428,0,0,1,3.417-.548,2.5,2.5,0,0,1,.541,3.458,2.426,2.426,0,0,1-3.417.548Zm4.975-.565a2.5,2.5,0,0,1,.541-3.458,2.428,2.428,0,0,1,3.417.548,2.5,2.5,0,0,1-.541,3.458,2.426,2.426,0,0,1-3.417-.548Zm15.226-3.206a4.126,4.126,0,1,1,4.126,4.076A4.1,4.1,0,0,1,40.212,12.455ZM.665,11.836A4.1,4.1,0,0,1,4.741,7.71a4.126,4.126,0,0,1,0,8.252A4.1,4.1,0,0,1,.665,11.836ZM33.452,8.409a4.137,4.137,0,0,1,2.618-5.2,4.067,4.067,0,0,1,5.137,2.649,4.137,4.137,0,0,1-2.618,5.2,4.026,4.026,0,0,1-1.26.2A4.084,4.084,0,0,1,33.452,8.409Zm-22.8,2.25a4.137,4.137,0,0,1-2.618-5.2,4.067,4.067,0,0,1,5.138-2.649,4.136,4.136,0,0,1,2.617,5.2,4.083,4.083,0,0,1-3.877,2.852A4.03,4.03,0,0,1,10.649,10.659Zm15.094-3.97a4.159,4.159,0,0,1,.9-5.763,4.046,4.046,0,0,1,5.7.913,4.159,4.159,0,0,1-.9,5.763,4.045,4.045,0,0,1-5.7-.913Zm-7.857.775a4.158,4.158,0,0,1-.9-5.763A4.045,4.045,0,0,1,22.678.788a4.158,4.158,0,0,1,.9,5.763,4.044,4.044,0,0,1-5.7.913Z" transform="translate(406.571 -39.151)" fill="url(#linear-gradient)"/>
  </g>
</svg>
